<svg width="24" height="24" viewBox="0 0 24 24" fill="none" xmlns="http://www.w3.org/2000/svg">
<path d="M23.3642 11.4896C22.1313 11.791 20.3254 9.5403 19.0925 9.8C18.7373 9.87463 18.3343 9.94627 18.1791 10.6597C18.2716 11.0925 18.3224 11.5403 18.3224 12C18.3224 15.4925 15.4925 18.3224 12 18.3224C8.50746 18.3224 5.67761 15.4925 5.67761 12C5.67761 8.50746 8.50746 5.67761 12 5.67761C13.4746 5.67761 14.8328 6.18209 15.9075 7.02985C15.8537 5.61791 16.1612 5.1194 16.5731 5.03284C17.809 4.77015 19.8866 7.26269 21.1194 6.96119C21.7134 6.81493 21.9134 6.17313 21.8687 5.17015C19.7015 2.04478 16.0896 0 12 0C5.37313 0 0 5.37313 0 12C0 18.6269 5.37313 24 12 24C18.6269 24 24 18.6269 24 12C24 11.5761 23.9791 11.1582 23.9343 10.7463C23.8388 11.1493 23.6567 11.4179 23.3642 11.4896Z" fill="#F28E31"/>
</svg>
