<svg width="124" height="28" viewBox="0 0 124 28" fill="none" xmlns="http://www.w3.org/2000/svg">
<path d="M23.3642 13.4896C22.1313 13.791 20.3254 11.5403 19.0925 11.8C18.7373 11.8746 18.3343 11.9463 18.1791 12.6597C18.2716 13.0925 18.3224 13.5403 18.3224 14C18.3224 17.4925 15.4925 20.3224 12 20.3224C8.50746 20.3224 5.67761 17.4925 5.67761 14C5.67761 10.5075 8.50746 7.67761 12 7.67761C13.4746 7.67761 14.8328 8.18209 15.9075 9.02985C15.8537 7.61791 16.1612 7.1194 16.5731 7.03284C17.809 6.77015 19.8866 9.26269 21.1194 8.96119C21.7134 8.81493 21.9134 8.17313 21.8687 7.17015C19.7015 4.04478 16.0896 2 12 2C5.37313 2 0 7.37313 0 14C0 20.6269 5.37313 26 12 26C18.6269 26 24 20.6269 24 14C24 13.5761 23.9791 13.1582 23.9343 12.7463C23.8388 13.1493 23.6567 13.4179 23.3642 13.4896Z" fill="#F28E31"/>
<path d="M33.26 21V8.62H40.84V10.66H35.72V13.66H40.2V15.7H35.72V21H33.26ZM50.91 20.68C50.4567 20.8 49.9033 20.92 49.25 21.04C48.61 21.16 47.91 21.22 47.15 21.22C46.3767 21.22 45.7433 21.1133 45.25 20.9C44.7567 20.6867 44.3633 20.3867 44.07 20C43.79 19.6 43.5967 19.1333 43.49 18.6C43.3833 18.0667 43.33 17.48 43.33 16.84V11.6H45.79V16.52C45.79 17.3867 45.89 18.0333 46.09 18.46C46.3033 18.8733 46.71 19.08 47.31 19.08C47.6833 19.08 48.0567 19.0467 48.43 18.98V11.6H50.91V20.68ZM61.64 20.6C61.6 20.6267 61.5067 20.6733 61.36 20.74C61.2267 20.8067 61.0467 20.88 60.82 20.96C60.5933 21.0267 60.3133 21.0867 59.98 21.14C59.66 21.1933 59.2933 21.22 58.88 21.22C57.7467 21.22 56.92 20.8867 56.4 20.22C55.88 19.54 55.62 18.5533 55.62 17.26V9.28H53.02V7.24H58.08V17.44C58.08 18.08 58.2067 18.5133 58.46 18.74C58.7133 18.9667 59.0333 19.08 59.42 19.08C59.9133 19.08 60.3267 19.0133 60.66 18.88C60.9933 18.7467 61.2133 18.66 61.32 18.62L61.64 20.6ZM71.79 20.6C71.75 20.6267 71.6567 20.6733 71.51 20.74C71.3767 20.8067 71.1967 20.88 70.97 20.96C70.7433 21.0267 70.4633 21.0867 70.13 21.14C69.81 21.1933 69.4433 21.22 69.03 21.22C67.8967 21.22 67.07 20.8867 66.55 20.22C66.03 19.54 65.77 18.5533 65.77 17.26V9.28H63.17V7.24H68.23V17.44C68.23 18.08 68.3567 18.5133 68.61 18.74C68.8633 18.9667 69.1833 19.08 69.57 19.08C70.0633 19.08 70.4767 19.0133 70.81 18.88C71.1433 18.7467 71.3633 18.66 71.47 18.62L71.79 20.6ZM73.48 16.3C73.48 15.62 73.5867 14.98 73.8 14.38C74.0133 13.78 74.34 13.26 74.78 12.82C75.22 12.3667 75.7733 12.0133 76.44 11.76C77.12 11.4933 77.9267 11.36 78.86 11.36C79.42 11.36 79.9267 11.4 80.38 11.48C80.8333 11.56 81.2933 11.6933 81.76 11.88L81.22 13.86C80.9533 13.7667 80.6533 13.6867 80.32 13.62C80 13.54 79.5867 13.5 79.08 13.5C78.4933 13.5 78 13.5733 77.6 13.72C77.2133 13.8533 76.9 14.0467 76.66 14.3C76.42 14.54 76.2467 14.8333 76.14 15.18C76.0333 15.5267 75.98 15.9 75.98 16.3C75.98 17.1667 76.22 17.8467 76.7 18.34C77.1933 18.8333 78.0267 19.08 79.2 19.08C79.5867 19.08 79.9867 19.0533 80.4 19C80.8267 18.9467 81.2133 18.86 81.56 18.74L81.92 20.76C81.5733 20.8933 81.1533 21 80.66 21.08C80.1667 21.1733 79.5867 21.22 78.92 21.22C77.96 21.22 77.1333 21.0933 76.44 20.84C75.76 20.5867 75.2 20.24 74.76 19.8C74.32 19.36 73.9933 18.84 73.78 18.24C73.58 17.64 73.48 16.9933 73.48 16.3ZM88.43 8.9C88.43 9.38 88.2767 9.76 87.97 10.04C87.6633 10.32 87.2967 10.46 86.87 10.46C86.4433 10.46 86.0767 10.32 85.77 10.04C85.4767 9.76 85.33 9.38 85.33 8.9C85.33 8.40667 85.4767 8.02 85.77 7.74C86.0767 7.46 86.4433 7.32 86.87 7.32C87.2967 7.32 87.6633 7.46 87.97 7.74C88.2767 8.02 88.43 8.40667 88.43 8.9ZM92.09 20.6C91.5833 20.84 91.1033 21 90.65 21.08C90.21 21.1733 89.8033 21.22 89.43 21.22C88.79 21.22 88.25 21.1267 87.81 20.94C87.3833 20.7533 87.0367 20.4867 86.77 20.14C86.5167 19.78 86.3367 19.3467 86.23 18.84C86.1233 18.3333 86.07 17.7533 86.07 17.1V13.64H83.47V11.6H88.53V17.42C88.53 17.98 88.63 18.4 88.83 18.68C89.0433 18.9467 89.39 19.08 89.87 19.08C90.0967 19.08 90.37 19.0533 90.69 19C91.01 18.9333 91.37 18.8067 91.77 18.62L92.09 20.6ZM101.64 14.1C101.48 14.06 101.287 14.02 101.06 13.98C100.847 13.94 100.627 13.9067 100.4 13.88C100.173 13.84 99.9533 13.8133 99.74 13.8C99.5267 13.7867 99.3467 13.78 99.2 13.78C98.8533 13.78 98.5133 13.8 98.18 13.84C97.8467 13.8667 97.5067 13.9267 97.16 14.02V21H94.68V12.22C95.3333 11.98 96 11.7867 96.68 11.64C97.3733 11.4933 98.18 11.42 99.1 11.42C99.2333 11.42 99.42 11.4267 99.66 11.44C99.9133 11.4533 100.18 11.48 100.46 11.52C100.74 11.5467 101.02 11.5867 101.3 11.64C101.593 11.68 101.853 11.74 102.08 11.82L101.64 14.1ZM103.93 16.3C103.93 15.62 104.037 14.98 104.25 14.38C104.463 13.78 104.79 13.26 105.23 12.82C105.67 12.3667 106.223 12.0133 106.89 11.76C107.57 11.4933 108.377 11.36 109.31 11.36C109.87 11.36 110.377 11.4 110.83 11.48C111.283 11.56 111.743 11.6933 112.21 11.88L111.67 13.86C111.403 13.7667 111.103 13.6867 110.77 13.62C110.45 13.54 110.037 13.5 109.53 13.5C108.943 13.5 108.45 13.5733 108.05 13.72C107.663 13.8533 107.35 14.0467 107.11 14.3C106.87 14.54 106.697 14.8333 106.59 15.18C106.483 15.5267 106.43 15.9 106.43 16.3C106.43 17.1667 106.67 17.8467 107.15 18.34C107.643 18.8333 108.477 19.08 109.65 19.08C110.037 19.08 110.437 19.0533 110.85 19C111.277 18.9467 111.663 18.86 112.01 18.74L112.37 20.76C112.023 20.8933 111.603 21 111.11 21.08C110.617 21.1733 110.037 21.22 109.37 21.22C108.41 21.22 107.583 21.0933 106.89 20.84C106.21 20.5867 105.65 20.24 105.21 19.8C104.77 19.36 104.443 18.84 104.23 18.24C104.03 17.64 103.93 16.9933 103.93 16.3ZM122.54 20.6C122.5 20.6267 122.407 20.6733 122.26 20.74C122.127 20.8067 121.947 20.88 121.72 20.96C121.493 21.0267 121.213 21.0867 120.88 21.14C120.56 21.1933 120.193 21.22 119.78 21.22C118.647 21.22 117.82 20.8867 117.3 20.22C116.78 19.54 116.52 18.5533 116.52 17.26V9.28H113.92V7.24H118.98V17.44C118.98 18.08 119.107 18.5133 119.36 18.74C119.613 18.9667 119.933 19.08 120.32 19.08C120.813 19.08 121.227 19.0133 121.56 18.88C121.893 18.7467 122.113 18.66 122.22 18.62L122.54 20.6Z" fill="#D4BE98"/>
</svg>
